<mxfile host="65bd71144e">
    <diagram id="cu-JNEX-h9Fmbi1ExuER" name="第 1 页">
        <mxGraphModel dx="1009" dy="619" grid="1" gridSize="10" guides="1" tooltips="1" connect="1" arrows="1" fold="1" page="1" pageScale="1" pageWidth="850" pageHeight="1100" math="0" shadow="0">
            <root>
                <mxCell id="0"/>
                <mxCell id="1" parent="0"/>
                <mxCell id="3" value="async 确保了函数返回一个 promise,&amp;nbsp;&lt;br&gt;也会将非 promise 的值包装进去" style="text;html=1;align=center;verticalAlign=middle;resizable=0;points=[];autosize=1;strokeColor=none;fillColor=none;movable=0;rotatable=0;deletable=0;editable=0;connectable=0;" parent="1" vertex="1">
                    <mxGeometry x="46" y="120" width="220" height="40" as="geometry"/>
                </mxCell>
                <mxCell id="4" value="" style="shape=image;verticalLabelPosition=bottom;labelBackgroundColor=default;verticalAlign=top;aspect=fixed;imageAspect=0;image=data:image/png,iVBORw0KGgoAAAANSUhEUgAAAJMAAAAqCAYAAAC3IGmoAAAGx0lEQVR4nO2bX0xb5xmHn6JeVMpqB4gdIncMEzMpy6yECciWi8hp0hBQm7YSCygXSUFliaJG3GRKKBfGF4kTKRdzI1XJ0EjLhQXESrokgpJAgzKpbYCGTC5lGk3csUZ27ZmCp0m5O7vwOcQGG84xx7DF3yMhON+f93uNf/5977E/vzA7OyshEOjAC5IkCTEJdCFvrRMQPD8IMQl0Q4hJoBtCTALdyB0xjV7DZ7jG5FrnwThnS8/xYP46Qk9TMz2hNUxJJzSJaWZmBpfLxczMjMZlJrhr8OAzePAZrjDyRON0lYR9V7jli2QnuC5E6Gk6CL2n+dV8m4n6s/sY2JkoMLWMc7a0DGtpghhDV2kqLcNamkm8FSJppL29XWpvb5ei0ajqOT9c7ZRuXg1rXUozq7VOpoSvviuVuB9o7lsqXmOax/uV25a2L1to3uacTicAFy9eVO1Q0Ucx1v3MlNSW7CIRRo48c6zJ81cY8V2TncyzwG0SXc7D3VHgyTC3DB7uNcV42uRd4IARRo4o4xduc4l9yessnUMqvuEDyyAf/KEHi+XPXP9kEIulh+ZPfphf67M+OPdOecrZprrjNP9xQLOb2EpMKdt/anNojLRyMqqZ1Aoq7LuCz+Bh4gxE98hP2vkJFSvEmL5ZwK5YC3WT26DpL7IIIowcGYShFupi8Z/dlYDFweuxFnZ1Gnip85Dc10iVBcBE1cct1MX2UrhglcnzXsJvKOMPYb7pjYtzyRyWIoq/xMGN3z/lvf6fMH6zkL7vovGu0DAD7OPVonRzX2Gz4098Oqbi3yPzz2+H0/aZSjZz99vv1QfTgYwL8IKCgqTfqTDXNVIXa2FrGxQqAji1VVX8wvccmAEsJtYpjU8mCLONrZWZZp1IhH9/Y8D8G+WVbaLkDQP/+cczB0qZw9JZc+ytjQCcOvrr+FzVmCj7ucqhcl306d4p3q9IM6biNIG9A8n1VJbJSEyKIykOJdCDCFN/d7D5FRVDi35L5+Mp9g+WcTadk42dwzpYTeBxB/Vp3VBfNItJTyE9fRQGIOy7xfR1FRMsJtZd/ysTo+mHKDGXx8TLv4gR/kJxogkmmhbXdrpR5KCa23yW1iW+59HwZso0PPFL1UWR7x6x26ZGmfrxopbBSn2kh5DMdVUUGgbxnRmEtm0Uvx1QMWsruycj3NriwSe3FA7JddPCmBgonmykyjLBXcMgcuVC1OBh4u1t7PrYwZZTewkZvPia4n0vdR7idV220FSYeLUWqj4ap/704iI84vuQjt8d5/1sLb8arOq9Y84TlrobbdKZ0QXNwV6p0eqWvtIa7X/srQEhplXngXQmSThhqbvxXak7mGksm1RiTZgf7JUarTapJANxrhRxnkmgG7nz2Zwg6wgxCXRDiEmgG0JMAt0QYhLohhCTQDeEmAS6kTtietiLy93L+Frn8Ryj6bM5Ba/XS35+PjU1NXrnkwI/Xe5J7K0HSX2sLJnQnQ4uj83FL6zVOBvsWc0udKeDHt6k5TVtB06eRzSLyev1cv/+fU6cOJGNfFaIn9tjRg60Ni8W3vaDOLevRU65gyYxJQrJZrOpmLHAVR724vrbFpwNdkJ3OrhNKT+OjTMLC1wkTN+HXYzOKXGKmfeXh724+qfjfxvLOXp8D/OnNoJhfjQWsikph8RYxRxIcDgtOVhrTnJYEWNiDsD6dAfUcgzVYkolpEuXLgFw7NixjBYPjEU50HqScvx0ub+kL2indhOMd3cxVXYY52tmFEECEBzC83khR1sPUoS8pXWbcTZAl3sA5RDLZfc4YKTynWZqN5mpPX6S2sQ4KnP4186Tspv56XJ30LexmVqG8PQjz1G2OQFoEFN+fj6QfEw3ElnZ14rWVzhkl9jIBqPS6scfKGZXw+IaJPT1Y2bn5mSxyFgB7BxutcfFdh3qE90q4xwgELiAq19pM7JBzoGKN1XVb7mGajEpxbbL5cLpdFJQUEBbW1vWEkvH+orDq1TsJm+JCqGvV2Hp/1M0vTVQU1PD/v3757+ImZeXR17eciHmCAYB/HQl1Bnp2cgG4zT+h/Gr8e5n21fRL0thbHgVbu/t2K3T3Luz+AhwkcnI7JSfEEBwiJ6xuUVjchXNd3OKQ01NTbFjx45lRtvZV/Ellz+6wChGKiuKCUSXmYKZ2p3FuPrjW4y1phprQK51Nu2hvqKDy+4L3JBHJxXGKfEn1VMB9wVuyIX7UpQ3VON3d+FSDuwrxf52B5Wfd8W3WmM5ByqM3FvuIeUI4nCcQDdy5x1wQdYRYhLohhCTQDeEmAS68eLcnLi1FeiDuJsT6IbY5gS68V9hdyqMoHcc2QAAAABJRU5ErkJggg==;movable=0;resizable=0;rotatable=0;deletable=0;editable=0;connectable=0;" parent="1" vertex="1">
                    <mxGeometry x="425" y="40" width="147" height="42" as="geometry"/>
                </mxCell>
                <mxCell id="5" value="函数如果没有返回值, 那么返回undefined" style="text;html=1;align=center;verticalAlign=middle;resizable=0;points=[];autosize=1;strokeColor=none;fillColor=none;movable=0;rotatable=0;deletable=0;editable=0;connectable=0;" parent="1" vertex="1">
                    <mxGeometry x="390" y="90" width="240" height="30" as="geometry"/>
                </mxCell>
                <mxCell id="6" value="" style="shape=image;verticalLabelPosition=bottom;labelBackgroundColor=default;verticalAlign=top;aspect=fixed;imageAspect=0;image=data:image/png,iVBORw0KGgoAAAANSUhEUgAAANgAAABVCAYAAAArDirrAAAP4klEQVR4nO2db1BTZ77HP3X2hTNOcYoXiuC/QOhOxtk6WsBZ710nVsd/w+2sinqns64Ygaqjct94ZZBezK1i6H2x5WqFgqJbb20LAbvK4OpFpd1evIYYptsis02AKv8iKbSy44xvnHNfnCQk4QQT5BDA5zOTmeQ8/34nOd/8nud3nuc5L0mSJCEQCFRhRqQNEAimM0JgAoGKCIEJBCoiBCYQqIgQ2KTAhWVnCXVmV6QNwWXOxuBnRwtFiSZsEbNoahOWwAYHBzEajQwODqplT0ToN5/DHFUiv4pbVWqllVtRtbSpVPu4YDWRVr+W4owYn4NLya+CLYZqwpa/1YQmMRnNWMpOE14KN0xvNBoBOHDgANHR0aoYNbG0civqb8QNbUY3LdoZKy0UJZ4mqamC7XEjU22mZE5pm6j0E99ouPjckA9FyvW9KPwi3AKFhYUYjUZOnjwZksjaiktoPe75NJ/F3gvMhWXnRR5ccicdWUPG4cXQ00idbpCkgHyP9+eyKr6Ruv+G2HvfuMv51gc012Je3aXQ1ij0uHi8KZo5CnY738xlVSr4iaMnfBvw+Q4Gokpo9T1fn/wzK98m3e8CbuVWVAMD7k9zbrjteZYNCvR/8SeO/DAL/nOA+kMLOdV2n/11c7jcs4Y3AKzXqMjZR2cQMSzLLIL8RlwZWwlVYpBE8gssLgCkMXL06FHp6NGj0sDAQOiFLDVStem7ke8DuGf6QLppcX/oviVd+f0t6aHn/cvDafdMH0hXqvuH871cI90L2ZjvpJsvfyBV+70qpTvdCjZI30k3PXWP2QafOhR4WF05XI8kSZLUL935faANbvtGsyFY/Ze+kOLj/0ey9t6WsuI/k0ruOqXanC+k2l45/e4JrXS8ebQabNJxTZb0Wd+ozQTkPyHdDTX7NGXMQQ6P53qWB/Mb33j/2YH4aGYeb8C8s5H+gDK6N+czcFMeC/Xf7mTWfj2xnsRNS1icKr+dkxQ13M7tTqj8TRjdr8WsGsolo20JMzctYeVQLhlDu0hLCKHouNkwGv08vjSfuNRhe+OODPG4d3QbRmPjh7+SvVX6Qv5lWbj2zCNJH1pOlzkbTeI11nfkEXYz04wxCezkyZMMDg5SWFg4esaeRiwGWNCWS8ZQLhk35g+nJehJH8olowgsUSX+Qkv9DQvu/Y02XPzQrvFeSIJI0k17Y2hdvpiMCjo71vFnEX0MX2Ahi8vLbF5OAHBhOdU1MjlBT/rQGuZcGvSONSCGRf/8CKe5lcdJi4e91yjELpzNE8NfxjVK9/i+HPtqK27wse15bHjE33tCbT2WWZu6cDa7P/Y00n48ilnxoZYPj2VrdlPR0BI8g9OBQ5/E/OA5Agjd401nwgpyeMLzIYsrQU/SkRJao0poJYoFlfOhXU7qN5/jK8OQN+vMyrf9ulaxv9Zg0XUS2xbir5S6mZWV5/jKE0QINcgRBN3vltCuu4jZADMrlzCHEG5NjGrDYhZXWvhKV8ID8AY5/L8HuT05mBFDWtES6nQlmN2pc27kyl3YkEUaBinryN52ms8zg0QRz+fDxqYwAhwCGEOYfsJorsV885dypE0wMVhNaE4nYakMiBQGOz4qIkwPk3EmR3OtHBA5Fc1KIa6JJSUPy8brHA6cybENasISF0AM2/clkbdC3GienB5MIJgGTD4PJhBMI4TABAIVEQITCFRkWgms33wu4ks+Bj6FN16CN96LqBmCScK0Elik+et78B/A9YuRtkQwWZiUUcR+8zksaJhl+EaeQbFpCSv/6J6P6Dtb3XO8p5E63Tc88asligVtu0hLCFgm4nt/rbkW881oFijMSm8rPsffk2bzwBBspntwBj6FtQ64++54fBuCqUzYy1UmiieGQZKGclmFe8lLs57Y+EbqTkWzcmgzsbhngxTHkHFYT/qQ3i3M9JCFAMDxTmjLJeOPbmGbXegyYoAhHlzRyG31NFKn+wttGZN1LZdgsjJpBTbTZ1a67nAuOqDf3MmTS0N8demb4YxHnrOhI2neGfSxGbtI90ma45nFnxDDrFCmSgkEAUxagQUjnK6aQBBpplSQI/bXGnjGjPkn7YGry2B4Fnsrt1YrzOgXCFRiSgmMBD1plY9o9SzgjCrhVvNwcmxGGnOON7jTzmHpAXkWOzzQlWCOsjCrMvQFF+HiCdGvfRv4d/n9H/5PteYEU4BJGUUUCKYLU8uDCQRTDCEwgUBFhMAEAhURAhMIVEQITCBQEdUFZjMlo0lMDniggEDwYjAxYXpnNYYV7ewXG1EKXjAmposYp0U7IQ0JBJOLCRqDzSNJ347dOTGtCQSThQkSWAzbK4sgPxmNaZTdYwWCacYEzab3bEJpD/p4HIFgOjJBHiz0BwcIBNMJcR9MIFCRiRGY04FjQhoSCCYXqo/BbKZktpTDqvebxD0wwQuHWA8mEKiIGIMJBCoiBCYQqMikEJjLnB0wGbiFIvF8X8E0IPICs5pIq19Lsd9WbEvJr4ItL/CD2wTTgwgHOVooSjxNUlOQ5wKbkjmlbaJS7IMomKKo6sFc5mwMJhOGxGQ0pmo+NySj8e36Wa9RkbMv6DN8l2UWQX2j8GKCKYvqXcRb5bC/qYhV5fm072vC5DOr3tZwluw1S4MXjtOibbzOTTELXzBFUV1gq97fLd9g1heRnRJu6Xkk6cffJoFgooh8kGNUxCRhwdQmogJbtmY3FQ2jrA9zOnDok1Bvs2uBQF0i68FS1pFdfprPg4yxbOfzYaMeEUMUTFUiPxfRakJzOglL5VZ/IQU7LhBMISI/BkvJw7LxOocDZ3JsgxohLsEUJ/IeTCCYxkTegwkE0xghMIFARYTABAIVEQITCFRECEwgUBEhMIFARYTABAIVEQITCFRkTAK7ePEiV69eDbvclLin7azGkJhMkTXShkQY51WOZe3lgtgY5bkIW2AXL17kzp07JCcnh93Y0NAQH374IU5nGCso3Re8xvOakH069CTNU70R5C0TktEkZged8KxU5kLWXjKz9pKZZeTGM8u1cCGrnLZgyW4hyfUF5osjPj4gv62czDKlFRBObrwbij3BaSvby7E6tVbXPuTSO5+SkPAp/+X3p+Fyr7RX6U9VCoNPPvlEOnjwoGS328Mp5uXnn3+WDh48KOXm5kpffvllSGX6q7OkRSdsnk/SZ7u00q7q/jG1P7mQz+V4c/Ac90r3SB/f9T3SJzUUBB57Bn310nsF9ZLyN2aTPt59VGroC726/itHpfeuKBWwSR/v/ki6F4Zp/vRJDQXDtow89+eg93+lrPhaqbb3O6kkvlaq7VXI03zC5zobP0L2YB7PdeDAAbRa+XmVZWVllJWVjUXU1NTUcObMGX766adR83Y5Glml9biTGJJf86S4t3azmrzezXfrN5c5e6TXs5owmKtlr2Go5nOTr/fweBOl50kP/8uN8KJ+HjYcT9RNe+Nu1iuu8pa9VM28Qnb47jfubOF231JS/I5d5Ziv5wnwMC6rBUdCnPKkaVszN+am8brfgtZhDznSmzj56x0nC+OVdihq5sbc+fyDYjvlbg8Z6CX9vfGFvrl4qtbtyYHTwbqo8m8VsseZu4KKnk1s4hHfpr/KP85VMPFZ21eMkZD3pn/llVcAiI6O9h5zuZ6vs/btt99it9vZvHkzy5cvV8jhwv69nnWZ7svDamJL+W5qOmLA2YiDs2xpqKKzI09e3tLQDcTgMmeTVr8WS0cFMci7U1VYt5L9Qzu3/q2ddU1VZK/YxrWNTdTk5GMHXGYH6zvsZJuzSXPI9XitMOdzbWMTnZUBl6mzGkM+FHfYiUEW9eGvXWwPZRcs6zUq9ElkBx63lZN5uo8dx0rZ4bmOnVc5VnDZ+wCN4qy9AKzeV8oOunCkpKLz2Nrbh3be8BX0Y7eT1WkBF46tnMzTHhG2cCjrMhDHjmOFvG51knKmlPV1Rg519wG+YuqjN1Dgvu0uf2ukkG3lZFpSOX8mB5C7gVYb6JbJXVf2lXJ+mfscP8RHoEvZcewtjhUYuXGskNW+ZrgfJhLuY4n77zykXvcaFSOtx/69nqTMMCsMhXDcXX19vXTw4EFpYGBAkiRJevr0qfT06dOQy3u6iJ5XXl6eZLFYRilhk45rtNIi7+uE5O01NJ+QFu2qUuj62KTjvvkkuZu5q7p/uLvZVyXt2lUl9SvkvXtCodvWfEJapBl5/O4JX9u0QewJoK9K2qXRKnZH7pXukXYG7c4pd88Cj/l3rfy7XUrtBeuGKaaN0t1Urkvu0u7c7fMqdZ/33Y+G3wc5N2+bYXZjg2H9w0Up65JTOdH9u4z38COsIMeGDRtYv349RqORwcFBZsyYwYwZY4v0L1myhLy8PFJTU4Nncjpw6IuwdNjp7LDT2ZHnfUKL64d2Vimtdh6xzYCLm/Ww7p9i6HKAKXMprq+vyyulFfLav1cIcKTk0dlhZ32DbzdQzmtq8thmpzOU9WtxW6nsaML0/ciV3Lo9pRxOuMyhIEEEpe7Zj90+x5xXqbH6BCacLdz26Xb504LVqhDEcLfV2zMyLXh3M1hdssc7fKaU857XHtmb+nta5XNz1RnJLOhiy5kADzYmHvKgDX614NWRST49kfHegzNsdXhEZrfbx9bgjBls3boVg8HA7NmzR8/c3c6t17SKF22XoxHtoiBfRmM7Xe63LnM+eazlzbgW/lwub6DjLTui/uFNdlxm0wgBLMuzU5PTSHu3tyGf9+ODbk8ph1GK1Cl1z3yF0MKFgss4CBCUd1zUwgXfOp1O7o8Yf/m2Jdfjqiv3iwx6RWErDxgfedp1cqPsqk+kt4/eZ4xL28qMXOjzP68b7+7lUPdbnD+T4+3+4j6PIsVx8rP4ka66mcxXGH95/3DDrDEUxvR8sA0bNoypsSdPnpCXl8erryr8iyhgazjLKu1uhZRR+sxxWyl+P5u0RPdtBH2RvO2As9rtrVzcdJd1fd3uE0ABeZu4s2xJPAs5VXRmII/ttp0dzpJTRWcKQAzbi4owrEhG45uWF8JA2dnINdZSHORfWbenkB3vGrlgKx0Ocjid3J87n/X+J8vry+FQwV4uEMeOfW+hveQzjomLY2FfuXuMtZTD7nEQAL1dOBJSg1xUc4mf2yKP9VJyOJ8uH42Jn4vjtJHML5CP71HI7x7LyfUuZce+ZjIL9nLBnVP720IK0uOISUmDArku7W9z2NFzGeLBE+7v3eQemz0vfU1kp9yn3vM55VP2H3qdnn9d7M3S5WhEu0adtfNiRXMksJrQNKwLTYxuXHVGPuIdCtLHZw+7trK9WNNK/aOULyQtFCVeY73P8GM8EVOlIkHKOrLLt4UU1nfVGcnM2suhO2m8Mw7iaiuTw+LF5Lzg4vLcetkGVeqIC4QHEwhURXgwgUBFhMAEAhX5xaNHjyJtg0AwbRFjMIFARUQXUSBQESEwgUBF/h8dhOUqRbfPIQAAAABJRU5ErkJggg==;movable=0;resizable=0;rotatable=0;deletable=0;editable=0;connectable=0;" parent="1" vertex="1">
                    <mxGeometry x="50" y="35" width="216" height="85" as="geometry"/>
                </mxCell>
                <mxCell id="8" value="" style="shape=image;verticalLabelPosition=bottom;labelBackgroundColor=default;verticalAlign=top;aspect=fixed;imageAspect=0;image=data:image/png,iVBORw0KGgoAAAANSUhEUgAAAQEAAAA6CAYAAACwJuwnAAAQpUlEQVR4nO2dbVBUR7qAn03lRyqpSISFDBg/BobUUpYxeAHvWnezYzQRLNcbBTG1tRrkS6Gi/ImRICmcig6Y+COUUQko8eqNq3zEXEJpSEAm2RQpgTDeJYqb4cMoOiOzssItq/Lv3B/nzDAznBlmEBh36aeKqjmnu99+z2H67bffnu7+lSRJEgKBYNby+MjISLB1EAgEQeRXwhMQCGY3jwVbAYFAEFyEERAIZjnCCAgEsxxhBASCWY4wAkHFTvsb5TTW2YOtCPa6HDLd9DBjjC6jK2gaCWYKv4zA8PAwBoOB4eHh6dZnRhmq+4S6OeXy38Gr01TLVVrnfEbPNEmfEjrLSLrwKgfTwl1uxlNUA6mZtQRsojrL0EbHonUp21UWizY61sPQCB4F/J4iNBgMAOzcuZPQ0NBpVWpmuErrnL+hGd1I3L9EPZPFjDH6KDFtVWzWjE/tKovlI10b1W4Gwhd2zmUWgVFFnq2WzBV9vNlfyLKHVVswZTzub8aSkhIMBgOHDx/2yxD0HCzn6gHH1XwWOxuBnfY3znDzvJK0dzVpexbDbRONccPEeOR78GYBK6NMNP43RFz7X6Wcqzyg4zPqVt1SqcsHt+082BBKmIretpcLWJkIbg34duA64PIO7s0p56rr87rkf6L6j6xza2RXaZ3TzD3lKqxF0WciHVQY+vx/2HvjKfjgHhd2L+Sjnp95szGMhtur+TeAziaqcvMZUDEAAMsyjFBkwp62CX/NAMQQqyZPo0NHn99SBDOEFCD79u2T9u3bJ927d8//Qu31Um3Zj+M/e3Ct7EPpUrtyMdgqfbG1Vbrr+Pz0WNq1sg+lL2qHxvI9XS9d81uZH6VLT38o1br9VUuXB1V0kH6ULjlkT1oHFxkq3K2tHpMjSZIkDUmXt3rqoOjnSwdv8s9/LkVFfS113vleyo46K5X/YJM+y/1c+uyOnP5DqU460OFLQpd0QJstnbX6rMYjf6n0g2rakHR2WyCyBDNBwIFBhwcwkSfgNt529pBAVChPHGim7g0TQx5l4l6ez71L8th86PsBnnpTT4QjccNSFifKH8Ni5ozV8/0AVP8uAFd7MStHC0jrWcoTG5by0mgBaaPbSJrnR9Ep08EXQzw4Px9N4pi+mr2jPLjjWwdfrD2yRO711y3k9YD98OeI0fuX016Xgza6iWSv7n44m6uNUBSLtswcqCKCaSIgI3D48GGGh4cpKSnxnfG2ifZMWNBTQNpoAWkt88fS5ulZN1pAmhHa55S7G4PE37Hg2t/owc6NPq3zyy4IJoP0mby49x6Ep1Ux0L+GL73OKjjiBRYGCuOnWE/BZPHbCPhtAJyE8PQ8ADvtH90anzxPz7rR1YSdH3aOfSGcRX8YwVZ3lQcxi8e8AB9ELAzhl8y/TGn0/cHPcgS752Czi24Po8MI/3fb39ojeGrDLWwdyuVtE30H5vBUlL/lA2PZ6iyqmn30yrZeevUxzPeewwNfnoP/BkUwc/gVGHRMDfptAObpidlbztU55VxlDguq5+OIBw3VfcK3maPOrE9U/9HNjY74rZb2uAEievz0QRM38lL1J3zrCLz5Gxj0QtyfltIXd4a6THiieilh+DEt6lOHxSyubufbuHJugjMw6P4e5PrkAGA4ScalNMaVU6ekhrUUyMMVvw1JACSsISf9KOcyvMwOnCyCtW0BBAUF/3QEOygxDh+BQ8E00VEqLdpWI40LMXq77xMfwT9rjbTNa9BQECwenV8MdnwmBxE/CuWlPYuDrc3sIqGQ9rVfscfzF4PpUF8dyNQgQDib82MoXKHyY6EVRfB+lviNwCOG2E9AIJjlPDqegEAgCArCCAgEs5ygGgGxck0gCD7BMwJTvXJNIBBMiiAFBqd65ZpAIJgs0+IJ2OtyyCwrIzM6Fm1ZLecyY9G6uvnKyjU1AwDKyrULJuENCAQzwLQNB1or4c02Iysri+jLb6NM34fFJqd1NZ8gZ7WP345rdOhMX3HJNl3aCQQCB9NmBFY6fhSiN5KTEGhp/1euCQSCh+MRnSIUC00EgpkiKEZg6leuCQSCyRIcTyBhDTmVRznnZcwvr1zTi5VrAsEMELy1A51laI/G0O65QMXbfYFAMC0ELyYwpSvXBALBZBGrCAWCWc4jOjsgEAhmCmEEBIJZjjACAsEsRxgBgWCWI4yAQDDLEUZAIJjlCCMgEMxyhBEQCGY5ARmBM2fOcPHixYAr+af4PZKtlszoWIydwVYkyNgusj87j9Nio8ep5UoNhtIqLliDrch4/DYCZ86c4fLly8TGxgZcyejoKEeOHMFmC2CXEKVRah1/M7LvoJ6Y56a9EuTt1WLRRud4XUSlVuZ0dh4Z2XlkZBtombCcmdPZld7PR1QauyzPM5+GKM+zD7sqyahQW/lpo+Vdf/TxTk9FHvsbH9EdZKwtlJfW4O8ZyravqzCUHpL/znZ7pIYQGTm16tm+rhqrx9lmAtys159jij799FNp165dksVimdQxR/fv35d27dolFRQUSN98841fZYZqs6VFpV2OK+nsNp20rTawA7EeTeRnOdDhPce1YzukU25ndVml5mLPexNgvSC9V3zByxFiXdKprH1Ss9pRYV4Y+mKf9N4XagW6pFNZH0vXAlDNHavUXDymy/hnDzLmc9K+P//V/7xHmqUAXutD0/XnD6T/Mrvf+6HU9/fLkwkPJHV4ADt37kSn0wFQUVEBwI4dOwKyWpIkUV9fz08//URqaipz5871mvdWr4mVOqNyFU7s89AEyL1oE8k1kJp+AoCV749tSmqvyyHpbZNcTG+UVyN2lpF5Iwbd20VU6Y2UPV9EYaWesrYqNmvMGKPTqfKQI2PnXOYKChVxTnkgW90VRbTKCYosf97CIH2mLJKr1dLk3vvn10oodj2ry2bme2s8qW73LrK/+Bapx3Plg0+7KsloT+TkDnnbNntnO73z1qsvxOrqoCUyiQ/c9JXrbgF0r5VQvM410cZfL9tYuEFtV9gOWiLnk6xaTyUZRx19aDx7HLq61OVMU0TH7cilMzuP0/nH2DLuvDL5f0WNhSJ/dqu6UoOhLYzt+avQIPea5/hPCl65y6nSHpakQMPFmwA8k7CVglfkc7BtX1fxceeIU8wzCWPbXJnPHqJhQLnQrqHk9SVjaddv8kysHre3ZG2h/KSZ+4A25S22vuhI6PapA1dqMCj3YQHr30lH/s8OceHoKTqc6oWQ+Hv3d/RlZRbJhX68H4UJjYCjoYaGhjrv2e0P55h3d3djsVjYuHEjy5cvV8lhx/KTnjUZyle4s4zUyizq+8PBZqKXE6Q21zDQXygvPW4eBMJlA3DhVdr7qwhH3rW4qnMTOTf6aH27jzVtNeSsSKdpbRv1uUVYAHtdL8n9FnLqckjqleU4tagromltGwPVHk3JVktmERzstxCObHj2fGdnsz+7I3c2UaWPIcfzflclGUetbNl/jC2Ob5HtIvuLG+hVLg9m5wGwKv8YW7hFb0Ki8/Rl+x0ruufGfM2/D9pYleSxj6NbozSzO7sB0LBlfwkvdNpIOH6M5EYDuwet4PZVtnLHGk+CyiGC9jtWdMtVjI3DKB3PBWSXv7ML4pbJBoD8Y5xcpjzjEfi1s2A8W/avZ3+xgZb9Jaxys0W99AK68WqoYrOPuDVK670R5v4mArgL3KShLZ7t76SjuVKD4fpdIEI2AJZotr8jGw7z2UN0h8sN03z2EN2/eYuS18HRiM0sAVfDMHAKQycQEs/2/FVYf4TN77yF9ewhvrUPAREuGqrrwJUaDNfjKHknfazeKxD/omwALLFbKXklwqmD2xBjEhvyTGgEUlJSADAYDJSUlBAaGsrevXsDqGI8Tz75JBs3biQxMdFLjkH6TCaqVsQiG7Qs6vsL5T0LB/to1RtpL1S+4AmFDCQAmKl6O4b6/rFlyPN1enpvKAYrN5/N9JKpN3IwbZCq6BiSCyE8Tc7f1WsiZ3WVmxbhi2JoTV+BcZF7z9N1sohWEyRFF8k39EbaPQ2FJw7PIbeGgWr3xtlTkcfB2+v54Hiue2PSpFB8PAV7o4GP2e7WO9sbxzf6hUlO68Gd2yrj+mW5nDyuNMgkj552XQrhQI+a8bDZ+NlLb+9er7MALefNYDWTka3cSsiVG31XBy2Oz8geC8u3j3/u/bC/2ACuhkCzier+TSpaqDPW6AGGsA6H8OtnAesQ/yCExA2Kh2Af4ZmwZ4Ehuiw470M33QMLWPI6YG3h2wG4P3AIgxIb16a8JffOr79FvKNnd/bYisqvrJLlDocQ+3sXA+BDhwttN2HkJobSJqWiNZS8CFi7sRDPZqe30MOANo6tbu9uEwfX5pAU/ZXf3umERgDUDcFkWbp0KampqYSEhHjPZOul19X1dsF+o4+Va7PG9zzjLKCdSxdgjTGcWyehLCMe+3dHYa2RcJtpXF7LT3piMjxkJhQy0F8on6ib7nD55bz+u/8Kmk1U9+s5l1nEOZt72bgdx9hTkcfuCo3TnXd5MFVX3K3x2S5S36nht685ipj53hpJqqp+Zjo7NUS9ppambjy8Dy28yZI9hzH330WWm8ei/mz2RgO7P49kz/GSceX9x6XRA1wx0TESwvpI4Mo97mv/nbWKGmPGopu/j4SwxKHelR4GQsJ4FeDuPe57uP9uuOYdx113uU553nRwdf89yoTGOT0b8/WbPBPmviOvvS6HPRgZ6Pd/Rw6/ZwdSUlJITk7GYrH4LdytosceY9OmTWRmZvo2ACD39s/rVMezt3pN6BZ5eUBTH7eUj/a6Igp5lZc1Zr6slDctdZYdJ39sY1N7Xdm4iP2yQgv1uSb6Bp0VuXyeGuJ2HGMPahF4NVfctbGaOV3cQC+RRLm2pcj5iott5rSrTJuNnyOTeEHVQFi5Y5Xl2Bsr3SL+zobbVekxfeio10ZLxUWXGRwrdyYI+PdUGDjtNmVmo+XdPHYPrufkOAMiz6i4H1vnC7nhRUYij8sv3oSQMCJx7XVhnLFwqq+UcWV4CG+PJA89lqD+Wof4h1K3+aw80+BbhxGsE0wl2r6uGhuCOFE6vv8IbEsevzwBBw6PIFB++eUXCgsLefZZzzetTlfzCVbqslRSvPTYILtB7+eQFK1MYTo8CVut0uvbuaSUtX/Xx0qd61zgc8ToT5AafQJyaxhIQ441KIFHQL6fABDOZqORzBWxaF3TCn2co+DAZqKJVznoxYOI21HClncNnO5ycdVVXXENLyyH3cV5nEbDlvz16M67jKs1GhZaK5Uxv9wjO7lzi955iV52bookKtIsxx4Scjm5Tr4bHhVJ71EDGZ8j39+hkl+JLchy49mS30FGcR6nlZyOYGN4QhIUy7J0r+Wy5XYDRIFjqvHOhmPOocLDsYQl2iYaSg/RwALWpyyg4XoEGoa4YBlh7gqHa+7aS3srA7yYzvrrh/i41GFQQ0jMyFHpydVeawRzR5r4uNQsB/8m0GFrSg+Gk4foUFKdAcMX49BebJKHCdo1rNc2OeMVMnJnlhzgLt1iZ6GZpLMMbfMa/wyGglo84GFQjQcIHhL1eMCMM4nvFwToCQgekoQ15KSno62cOKYgj4ttELmeD957eAPQU5HHwU7GAnSCKaCbU6VNDOASJAwGzunqLOr7A9dCeAICwSxHLCASCGY5wggIBLOcx0dGRibOJRAI/mURMQGBYJYjhgMCwSzn/wEiCxf/tpkV3wAAAABJRU5ErkJggg==;movable=0;resizable=0;rotatable=0;deletable=0;editable=0;connectable=0;" parent="1" vertex="1">
                    <mxGeometry x="40" y="210" width="257" height="58" as="geometry"/>
                </mxCell>
                <mxCell id="9" value="没有返回值, 则返回undefined, &lt;br&gt;包装undefined" style="text;html=1;align=center;verticalAlign=middle;resizable=0;points=[];autosize=1;strokeColor=none;fillColor=none;movable=0;rotatable=0;deletable=0;editable=0;connectable=0;" parent="1" vertex="1">
                    <mxGeometry x="68" y="268" width="180" height="40" as="geometry"/>
                </mxCell>
                <mxCell id="10" value="" style="shape=image;verticalLabelPosition=bottom;labelBackgroundColor=default;verticalAlign=top;aspect=fixed;imageAspect=0;image=data:image/png,iVBORw0KGgoAAAANSUhEUgAAAeEAAACkCAYAAACgqJZlAAAgAElEQVR4nO29f3BT17n3++3bzHHP27lubluT+mhbQ6YhIWC3tgWkQe/xaXyTgGrHUpKpqfOWlrYWKC+KcBKjKSY0J5CQoLiDrWgaGZ0JJO8NDj0tlqmNaCjOrQcxF5Ds5kgQgnMmRtbBxfskE+smrXWazLp/7C1p762tX/6BgDyfGQ3W1tprPWstaX/X86wffIExxkAQBEEQxFXnvxXbAIIgCIL4vEIiTBAEQRBFgkSYIAiCIIoEiTBBEARBFAkSYYIgCIIoEiTCBEEQBFEkSIQJgiAIokiQCBMEQRBEkSARJgiCIIgicVOxDSiEzz77DP8Vj+PTTz8ttikLwk033YS/KynBF7/4xQUtJ9jFwYh+RNt0C1oOQRAEkZ2ieMLBLg4c50SwgHs+++wz/OWTT25YAQaATz/9FH/55BN89tlned/De81wjhRSCo+JC4BhsVb94xEnOIsXQa8ZnMULvpCsrzYjTnBdat8iHl4LV2C7XE2CcHIcOM4M76Tiky4OZm+OVh9xqv5+eK9ZbI8gnAX8vlL3zYJJL8zX+veEIK5hrr4Ijzhh7AQAB9y5HjYS/iseXzCTrjUKqqu2CqEmFcERxTSthUd6YR0AfNYacBwnvtIf2FqTB9GngQ7lZ5NemFXEI2uZIrzXLCkzv5dUkNLEolYPe6cxL7GdTdnJl1KgRpx526x+jx/6aBTRqAem8ty2F8ykFtp2B4xcfgORyLhv9mWV69EAKzoK+C0TBJHi6oajJ70wNzlgcI3Cc5cf5pUd8N6V34PoRvaAleRTV95rRs24BdE2GzxntTCv5OA8EoWtFgB4ePc5YN8YRZnivuCw2P4m8ZMRJ7h9Wqj6xeUmeKKKa5MR+Not8MxCPMpMHkRNGepyrAGjblOavdnRwXbEDm6fFy057s1atrUK/VEbCgvO21XuCcLJGRFSS15rQzRqE34DKyMFlVSwneVlMLVFoV9sRs1wELZanViuFZnl1giuU+26Aa6z2X6jZTA97cLgM37wpkL7jyCIqyjCQThXWuFr70fUVAbAhN2uQdSsdKKi4AcgIaPcBM+RCDjxgct7O2CFC6O1inSTXrg77bAc6YXZ2wKPqQx8JAQsBXo5Dg5J0hrOmvxbKtrBYQfQCfkDu72I88u1LXChBh1efWpgcT0x4gTX5FBcrEGq+UWxN+2G61gN3N4WeDLMJCgpM3mQHEOVm+BRGYUIAyDAMFAFS47fYbCLE6NY6vgk3xmBXAJOEMTVCUdPemHmjHAoHtZlJg9GXSEYC5wfvhb408vLcOeyHvzpqpYqzCWqhhhrbULbjjhRYwVcTyu9Eh7eZ6yAqwXacj0ajtXA7A3Cf8wHe50NtmgU0WgU/e2A8OAX3kejUYm4BeHvlH/W366cX46g15IhXL0glMG00Q7feOHe5dVEWAfBgVtphQ9CqJjjzPBGAGl797cLg55oNIroWRcMyRzKoF9rgM/am/ytTChC7DVWH9BpTAuPZwxJJ78rHnjOauHO8TvUtaX6PesrYXe7ZQEEWJjvv+bXKxBEniy8CI84wa20Aq5RUYDFH5E4z5YS4sIf3IIQSl6PD+A/578G1w4jfjhgh17p4SYQw/32Ix6YJuWLd3hvB6wDdlSNd8APHUzuUTQcM8IKF1qS+QmLtgAH/GoP7hE/HI3S0LWQvkorkfsBwbO2rsxjgdF8kRiAJIkgMmCANm8BCMG9wA/2hICNugxIia4Hpjy9WgAoM1lghwP+YeF9hckjE7/+dgCNLowqRNGm8n0JdnGCB97YAH05RE9ZD3+e88gZEX/vvmJGRwjiOmJBRVj4oYfgOhvNGiosM3kQPduAwVk8uO97cRjvnD+Pd84P40XY8Y8vXx3ftPrR83jn/CZUX5XSBPhICGjXZwgZpsL9tloIi5Yki98i4z7Yj+ihXyy0c+JBa98o8ZhHemEdMMDeboBjOG3tLbz7HMDAIPzJwZKK2DU2oKXNg+hZF2CtSQ62kp6gyqvG6gMGrKjJd2HUAtDw9ChcsKJmFoPB/OHhP+aDIPqzif7oYItGYatTz3viAhT9o5JK9J6N6BeEe6kVNcnBmpC/flh95XYueK8ZnLjmY+EEuAwmdxTRgtcPEMS1SQYRTmyhmO1q0j/Aa0n80POcEyo3wRONwjJeM0uP5Ov4zr33ARejgjf85wHYHh/Anwa3JD1l26DET/7zAGwSLzr5mXjfwMvLcOeyLRh4W0yX8LKl96l53op871QMCmTee0Geu/AAV99aJCwIkof7hUVLvmN+8BA8MVutDjqTCZ6zLoSaamBd2i/xkoJwNjmAdgts6xpgUK46HumFFS642n0YPC32zogfjoQnpaTcBE90FK4LRpi9fNZQ5qjLoOrBJV+FPtBH/HCgChV5e8JVqCgXHu6jrgX04if9GIRBDDE7YJzV4ELspzSEAZGhUdI/EhLi24HdsjbVtUWFSJTEFqGvdgPP5Ahnp3KH18IJoW3VAbcY/Zrt84RCz8QNTIaFWeKIe05ZR6GyGDUnurYolAty8+M/8f/+4Tjuu3cHvp649Hs7Xrl3GO+c7xbEsf63+FPDJlT/eQC2+uO4f+g8nN8AgD/BvawObu48LLcI97157zB6H6tDS8sy9A45gPr/QBTA17/RCOf5RuDtHtx5IN2KP/XZsaz3PJzfVrFwcAte0Q7jnfNfT77fOfgdOBu+np5YyaQfgwMGNDydtt5ZEOBGF0aVYlWrh33AiN4Rk0RshblhebiQh9dihAN29LfpAOiERXNNTujFxTrBYWG1tQkRWPcJK2Ejww4Y1o5m8UgEYZvN92AuCBEDy6wW+wmrqINwcjXgjrlUV2zzkRDQ2KC+ojybXacHgaVVwABgcVtQxbnhXVxVQA5BODk3tC47oFwDJQ6IRjdWoWZf+krlTKvDk5+lX82v7xILyxpdGI1m8k6L8z0giOuB6/7YyuNb60TPsg5v3jusELQt+Gni/Tca4UyEj6/8B44/9hM0fiORrhrfeQw4H/3PtPvue/HhgkLOnPY+dLeke8CJQULK3mX4x63HcTyS35AjeMgKn9LrvOAWFrw1qosFoEOLy4BQJOG5OsFxggecEmBBcKwDBrjOplbHlpl2w9XoSM7VC540xNXIVvR6xZXWRV6RzHudirBpEL1WH+x1cwmH6mCLiuFpFW81Mu4DllYUGA4NotdaBcu6hHTrYDtShcg4gORCLWH1cXIPt2xLkTDYwhG1eWRhqsCwVo+yRP+oea9qe7xnfdiG6N0mws8UHiaIWXHdi3BqTvh8fh7lAvP1hm7BntWnVULO9+HFofNJe985fx7vPJqfxOvaVObBBnyCR5v2ABQekGYvjzKTRwgPih6L/Yg8vBvsEkU8bdqgDCb3KFyNPlgPBeXXN9rhsAorrYu39EaYMulAi8zuYJcRDgCOprmuuBfnHpXRhUkv3J3IW+SDXUI49YLXDYdyPr/WJs7v5l4dHewyIuQaVV1kJczlJwZEYv+o1J8/PZgcyKVO5tKjQTYvLKbNcoqWENquEbbBRbOv9yAIIjvXvQjPils0uO+l/Rj4s/j+zwN45aX7cL9uHkX825vwzvmD2PL7/xBDfV8Hd/txbN0z9xXcwS5xMVOOFaiyVcu1NkSjo9DuSzx8BRHz1yXEXbH9adILs8UPfZoQiV5Xo3y7zNVEEAE3tIr5R95rhrHTjv7oqODFz/tcohjKb5SuKM+DpRX4ZBxwrVPpK/EQD9VeLDfBI36ma8sgdskV8ZI8am3ob1fOOYsRgo2KAZt4sMeoKyQu4ksMbixwXTDK52PFU79qrD5hMFcU75e2KBE3Fp9PEf5GI5y9y7C1XlwgVW/Hst5uSXg6C2/3CPe0dAO/t+MfZd7uf2Lgcem2qUeA3tQK6upHxRXckoVb7rcLsFt8CBo7hRXMuDCh/iCa9GNwQGUrk8xj0kHfDskqaMX7chMsS9OPIwx2CR7QbrcH0bNauKWrl2tts38w5xHejYwL+2Brxi1pC/6EgQnEkHoZTO5+2AfUw8mzg4fXUgPrgB39GeuohbZR+j4If6ewj1rXtgCHVoinYEHFQ9a19cPeaUz2De91Z93eloqYCNvgLCYdTG5x9XRXUBR7YadD9IgdjqbZraAmCELOFxhj7OoWKT7Mlha2j/D/i8UW0KZrj/+jtFT2Xji2UPBAbLXIeQyh7GhKIQd4LTUYXKs4srIplDrVaMQJrgmpoxEnvTCvHETDWQ9M5WK/QWX+WfXUJwlpHntC0FJXkvXKSGJOVJEu0Q5q8+ISkcoUMs33OMhgFwfjhUxz78r8pL2iON5SPLYy0+lUwS4O7sWZ7QUga+/0fpZZk/m3lqXP1PIMdpkxsU4+kEivawZozzBBZIRE+BpFKcJzRimwANKFTVx9KzlqMCEKu9EhnlV97TxMBRFA1qMRea8ZHdg9ZxGeN+ZDhAmCuGEoggjPjr/+5S+fm//E4aabbsLf//f/XmwzCIIgiAXmupkT/ruSkmKbcNX4PNWVIAji88x14wkDwGeffYb/isdvWI/4pptuwt+VlOCLX/xisU0hCIIgrgLXlQgTBEEQxI3EdROOJgiCIIgbDRJhgiAIgigSJMIEQRAEUSRIhAmCIAiiSJAIEwRBEESRIBEmCIIgiCJBIkwQBEEQRYJEmCAIgiCKBIkwQRAEQRQJEmGCIAiCKBIkwgRBEARRJEiECYIgCKJIkAgTBEEQRJEgESYIgiCIIkEiTBAEQRBFgkSYIAiCIIoEiTBBEARBFAkSYYIgCIIoEiTCBEEQBFEkSIQJgiAIokiQCBMEQRBEkSARJgiCIIgiQSJMEARBEEWCRJggCIIgigSJMEEQBEEUCRJhgiAIgigSJMIEQRAEUSRIhAmCIAiiSJAIEwRBEESRIBEmCIIgiCJBIkwQBEEQRYJEmCAIgiCKBIkwQRAEQRQJEmGCIAiCKBIkwgRBEARRJEiECYIgCKJIkAgTBEEQRJEgESYIgiCIIkEiTBAEQRBFgkSYIAiCIIoEiTBBEARBFInrT4QnvNjaMQReef1cD9Y+0otIIXnFwzhg3Qrf5PyZRxSbIJycGd459Gmwi4PZm/YNExhxguOcCObKJEM63msG1xUU7cwjn7T7rmV4eC0cnCPzn2fG/kgjj/4fcYKzeNOfIWn5ZOifSS/MBfTdtUB+358bo/94rzmP/s2Rv0r/Bru4ueWbgetKhOPv9cLa8gfoH61HmeKzyNtDuLK6CtpCMiyJI+b/A9zHwvNoJYAP/XCsN6Pn32Lzm+9cGB9Cz8tDyUFK7PhTqKkxwzu+kGX24kc1T2HowwUsIw0dWlyA9VDiJyQ8BDguy0v2w+IxcQGo0iq/YWJe+xywH7FBN1czJ7XQtjtg5PJ76EXGfXMtMQ8ytJXFC37EmbUNEw9Z/Vo7HE2c/IE/6YU5w3056z7SC+uAHRaTWn+ooYO+3Sfp/9miQ4srBGPaQ5eH9xkr4GpJ+w4Eu9Tq6ITXa86r7a4Fbpz+S6HeL5n6QPiNG5T9O+mFuxOwbzSlac+cYdcJ03/cw5q/v52diDDG2DQ7sU3DNJrsr51/nBHufXN7zrTZ7i+IyFHWXr+Z9UXmtfpzZup3m5nmZ33skvh+JryftW9ys8DHC1nqNDv6hIatf+NS7qTzSoD17Q2wKeXly32sVdPNApJLU32tTLOpT5I2wLo1razvskq2wW5J2gDr1mhYd1CRVyL/YHfqb2V5ewPq7y/3sdZZfE81mewtmCnWt0leJ3mdUwT2alhrX1oLS+ohsUml3TOWNav6a2RtqixP6Jfs96vXJd3GwF5FWWp3Kb5Tyj5X5p+xHWeJWnmZbVDhOu8/Zftn/a4qUf2+C3VVK1dW/1ly03yL+rzzKQ+/+0lsDeqx71/sqCwFgFLU744iultME/dj1zd7sWLUBYPKMGXs3CAMjrfwy8Zb8ivzEz8cKwex4s6Swmz9JAjn5l7c5vTAVFHYrQvNlXE/sPQnyUhByfINeNG90KWWYsU9JpiPnwO/Tjv/I0gFwS4Oxk7JhU7A4BqFJ69ReBBOzghH4u1KDlYAgB39URt04OHdF4LraZtYDx1sR+zgmpzQRwXPuMy0G65jNXB7W+DJMyRTZvIgmnhTboInakpLw3vNqDkGGAaqYInOgxc+S4JdHNyLR+ExQYgW1GVoV2U9JiPwNWqxWz11ilobolFb8i3vNaPGWiW2f372SfvfxzlgPxJFCwA0ujDqFr2YESe4fVrxPQ+vpQaRZORD8T0AgAFO/h5GcMly7HnbB0DwKldGitSPE/BajLAOSK+p2H+d9p9QXiJi5EMNZwUaXXAtzaNwwWIh0rUxmszXurQf/TDCOiBvJ+E32YCW2nzzzsy1H45+dxDeL9txbP8mVE57sfVJb/q873th+Ov0WJ7hmaBrG4XnkSUoLS3N7/VhBIEs+anDw9fxGC7+9FlsWi6K97gXWx/pQfATHv6Xt2LdI+uwzvIUDpxRCVPHIhja/xTMj6zDuke2YtehIGSpYkNwPLIV3vEYgpJ0PWp58X4c6DAL5T3Zg+CHPCbGeBhuTVQohqEX1sF6aGwe8hby2upVn40v+4fbgd+OFTZXnwiLFjj/omuLIhoVX2ddMMCAhrsknSg+TNT1UQdbNIpRlwFo75fkITLSC+tSC0zlkltqW+BqdMCYDN2VQb/WAJ+1NzmfNKEIRdZYfUCnMf+w3ogTNVbA9bQHnrNauK/CXKSjSWJbU0J+soXpxRRq846TXpibHCphvDJULJWUpXJfh9WXHhbMglr/a8tz3CSGS/Wyh6kBrrOSvDK9jtjztKwIKL5jwvduEHha2UYprvf+KzN5EE38hhtdGI1GEXWbkK8/xHs7YF3aD1ttKl/XYjeMnYqByohTGFy45yc0fe17wss34MXlEL3M/aj4wfewlePgV0m6mtsqeVeJHb/vR6X3m1j38mwK3oSJOKDN0xmOHe9GR9yOflPqER+PhNB7OYaSXzyJklUbYLOWIDbSg46H1iN29NewfUvMfMKHrS0diKzegg1WA0pjYRx41oj1/DH82lqJEgCYGMPQ8EcYe6kDVf/4EDZY6xE51o2tD1lRevI1tCwWyxxxornpBG7fZYGtsRSxd73Y2fEMKk4D2ocTkYAIxt7y42ad+H5OeXdjRcyPsvoMrl+5FoYCJXjuCPN2VUeictHMxNKK5I8pMu6DYbE45k96AEE4mwB7uxEcp3L/gBHOuihstUCZyQK71Qj/sPCArjB5IHUqgl0cjBcko/osJD2DRhf05QBggicahJPj4D8ilLcQ2KV5jzjB7QMw6cfggB0WNwBEEBkwQPu04sa7GmC3GsF1GuA664Fp0gmuySHPT4KuLYpom5oFQThXWuEDAGsNOGsWYxvV2jIxbzsKUzmyD+RqbYhGsyW4fpB5ku39iLal5I/3mlEzbsn+e7iB+8+XxY5EtCwy7gM6fWKUwwDXWQsiKx0AfDByjrT7ktdU61AAc49op3PhwgX24IMPMo1Gwx588EF24cKFOeZ4ifXZ7mab+wqfW5yZnmbTqq9LrM+mYdt9Uxk+L2Q+OMTcD1SzPX75PZdeb2YazXp28H2ZRezEDg3TbDvBpsW6HfxhNdv8G3ndZvx7WLVmJzspZinMa7fK55pnTrKd0nmJD06w7dVr2J7TcjtCv1rDNJrmlB3TJ9h2zRrmDs9X3q2Z58Df7mbVKnOjC4l0Tkg6h5c+/6ucK5PPcyXS9+1NzAGp10N1nlB1Tjgxt5R9Djc5BybmGdibXrZwbb7mguX2qc4J55rvk9Q/n3nTXDakzROqpVTpT/n1Kda3qZv15ZhTlM8XZlkToETRx6pzl5v6WCBt3j9xT5HnhDOsW7i++0/xuxX/zTbnr3Z/6jegTCP/fmSqQyEsiCe8bds2nDlzBgBw5swZbNu2DYcPH55lbjH4X3gMVv4xnDIVtPYZAFBSWooSAJFDZjz2ly3o/0ml8EE8hNBvTdA/VYbS0lmaluCcH31xCzpXS93mOCbe96PMeggPLZZZhKpaA3AshjiA+Kk34PhsC379sLxuJbfejhUYBP8hgHIgMh4AfmRHvTS2UvIlfEXyNnL8AA7Ub8H5VXL3vVJXDyCeCu1MjCGAFcm85p43UJEh5hP/aBp8Y4Gr1ufCiFOcF0rNCY26JQExidebTgSRATv04lx5ZNwHw9rdMJmiMKmO+AV0bVHIB+NBOJscAJThSsGDNDT6MHiah0kxV52Y0zK4RhGNemT5jy42o6YrmPRuBC9EDNsPIKO3MhscTYo50EaXfL4vx7ymtD3k83RqiF5XOQDJPNzoWjdqrNK51ww0NsjfJ/u/Cn7vIKxLLRhFSJwbtGJwsXSNgHI+OIEP1uSagFyk+rhMjHok5gsT3hHvHUwlz3d+9WqhMj1zXfef5Pcf2Sh46sGu/HoSADDpRS92L1iUSY0FmRNOCHCm9/kTg/+F9VjnCqJsdRW0CMNZk3u5OcdxqHFJtx2F4XtlCt9bVZm6lGMeuRDCp/pwxbAClbKrVxA5BzToqqCMaP/1MwAlwtWxkV7ww0/hHmUdVlrhQxUqyoV2mHo/DH3lbZCNFyYnEErOm/A4d2oIhtXLoRxTxKZjQN1tqBANiV2eQHh5BRaVzlfemYVt7F0/KnW3LfiiLABC6LQJcLkMQKMd9kYAA4PwTwIAD/8xHwyLswwHRvwS8QnC35mYAxVCwBm/b7L5sCCcnBtal8p84YgfjsYG7N5oh++YPy3MlpjTUltIVmbyyMKL4lWY3MIc2nw+NOxHFHOfilAbf3oQPkjnwuUEu1JtUmbaDVcjxIGFPN/+dgCNDWKoHQh21WBw7Wiqnom5+QyvUZdBXvCkF+ZE/8MBq7UK/Ym8llZAv9ggb3cxxK5Pa7vUnHB/u9T2UbgaJe0zizlhPhIq+J6FIpMt12v/Bbs4cMP65Jxw4YumhDC6w1oj/rZT+5V9yWtGOMRBWnKufY4siAivWrUq6/u8iEfgfXItHF+y4MV1wEPfWgKgErbRDJ168kXol+/AsUQHW1OSGB/uw6u6LWhZnso+8vYQwsNbsTrtoWqFr6BtezwmwmE0LF+isH8C7w0Di76WJls4d8qHysoKlEFcMNV9KsMXNeFpRDAWBJaU3SzPajIiEeorGBsG8MW/T7Nw7NwgsFyL5IzweADQLRFHwPnk/RGuvK+WdxyhoDxvORGE3rqC7+kqVT+db4LDIbjO2qAHAGjR4o5i1AVYn/GCH+mFdUCxUAuK/be1NkSPQNi72+WHA9IHtPpiHfmDRFhZiyMepAdtxP2Ha/Uoq22BC1b0qi3GmvTCrDysYNIL8wIcEpAL6cNYchW9VsDeblC9JzF4sdclBgxlMD3tAqwdsjrxXrOw4EUi8Lo29QFI3vYeGkRDov/b+9Hf7oBbsge3zGSBPTkoA4KHrPC16xXevA62aMqzy7oYTYwOFLLKOTLuAwasqCnWwSuS/d7Cgj/lXOb1239CdEi9N1IiKn3VyFeKi4Pw1IDDk5xDVxuEqA4kZsGCiPDzzz+fFN5Vq1bh+eefLzyTEh5/XboPv360FO8dMqW2C00OYdcz6Suk+bAf/rpKLFHmEw+jp7MHfy0tkXikMbwX9mPDv4zi/PnzitcvVbc5ZUYQvzSxnYwgDGDqA8UK4/FB9B6qx4/vqwRQhkUVQCyeZjT4CSFcLZg7hYlzlaj4B3kZfCQkCSeVouxOIPaXv8qz+nAIfa/y0N9aIdZf8Hwrb10keLV55X0zbrkVmJi8Is97wocDLmneCs758OoHFtRfpdCOrs2TtvCkzORB1K2Hf58DaFdfmCLzjmttiJ51IdSpsmE/B8EuI0KuUXWvVHZoQRlMG+1wNKmcqHV6ED7Ru0id3KVHw1IrahQroxf6FC1dWxT9MMrKCHYZ4Wi3JBfrpTGiHLxA2PJypArWlcIq8GAXl9/WFZVV5GkrfmX2yvtft84FHPPDP56IgEgOcpn0wt1pgGtdNgvEBWg5Fvfl3Q9imakBjBDJmItwFUytTSIiQnvJToK6ofovhbqICpENZdsU0h/C82Vuq6QXRITvuOMOHD58GNFoFIcPH8Ydd9wxi1x0aDFXokQZNi6/DVUfPoOnDkplOI6Lb3uxYZUy9BtH8OXtOPG1etziOgDfROJyCP7XDFjx7TKVLUoF7g1GXHX5XjzyHvzLdQh5DsAvnhgVO+fFU7atmP65PTlPXLnahosvOtB7ThTrT2MIH3wS9zd1pOwV53CXKOZdI+/5JHOcWlTdo4P/1X3wjQvyHZ8cguMXPQjxQCUnWRkdBFYkhCevvMugb9yAK89tx9b9PvhP+THkdcDc9QehDpyaHxyH3+vGop8aULgfPLstSpkIdtXAOpDvD1ZYmelrt6PKWlOQyGX0BBLbPKQnbdXa0N+uDOkG0Wv1pW8HKS+DqS2KUVdI9AyE8HgHLHBdMKq2k7oXWwDiKUnGTgCdRjhHJN6P0tuQHPMXHHYAad4lUoObJi59y0cmCg1nKik3weOuQKQz5c2WmXYLbbbSCrh2Z10tzHvdcEjCrZmIjKtMcwxYUSOGNP13eRBt04rfq/QBjJqIz7n/FKhPZwAJbz/xW7+R+i836oMgXrKt0Jxh66UM6TGaktPF8j3+85rfJ5x+HKUWpp/vxpKx9yQPnjEEf6PH8iVyby7ifRKPvf8TvLTfgx2PBmBtMaPnrTHEzoXhr6tH7Zw6MEEZtGuB6Y/l7uyVaBjQbcFzP53A1m8JnbLsh70o+elbqW1HAEpWb8H/tsXx0pplQscvXoaNvluw+4greeCHfA43WTtMXJB7cZWPdOLFyiGY/8c3wXEcvrPFjxVtm7ACetyW2Gul8Hzzzbv0vmfx5q+/Bxw/AKfLCd+kHrt//hBukeYtIf5vPXCc/gnss1hMN58ktm3Yj6R7yfJ5X+G9kxMWlkTbbLBF+2EXBQiSeaBso/k0Jr0wrxS2Wyg9ZCjsmQUAACAASURBVF2bkH/iYct73eleiIQyk0d4YIjeisWkg8kdRf9SZXhTGVIsDEeTsCahSjI3rB8Ww5dn0x++yahJ4mg/RbnJh9rKQTScjQqDD/FIxznLTNaFdhDn4SXzgyO9isMqMt3nzBCuVZIKWSeOR6yx+iTz6h6YysUFS3BhVEUI048knVv/AQAuTOQ5gI0gMiCWdSP1X658VUjUswO7k997j0mHihyHfQSHHWJ5qa2RwoAlz/aZw8rqq4BwPGWu4yOn/XvYmvvdLJS8MsMuvr6ZVT/QLTmWcZoFfrWZfbc61xFqyi1FuQnsrWbVsuX4M+zksxq2Zp9o0Yyw7SlrLf42I2yNmo9jJD8udIvVLAm72RrJNqpU+QHW/UAT6w5eBRtUSG4bEI+BTD9aUm1rTbbtIpm3rWQ8DlCypSf7FhRxS0eOPPI7ZlFE9ZjBPBDbS3XLhzI/hW3dQWU64VjPrLZKj+nM85jFwF5NWrlKUvfKjxaVb+tKbKXJtI1Mvf0ybUPK2BuJOmY6qlTtezfb/kurQ2FHRl7v/SftG6nNyjJzHpupJOdxnHKbuoOsoD68tkV45iTbqdnMjqp8B2QNW92seOCH2P6tbhbKIGiZ9w7PUrzCbrameo9EjELMfb+GbX9zuvC8rkXeP8p2/nAPOyGtzvRFdtBWzdbsDSgGF7Pf003MDwWdE3wDkqx/sFv2MFdtE4lIJh7i83EecNIOtcFb2hnhKueZU/8V3H/XBBLBzvd79AXGGCvQa796nOvB2udKse9gS9pethjPJ7f5oKQUBU/lzisxDHX8Ew5U9uO1R7RAbAhPLXOg4vfHsGl57ruveT4Jo8e6Hrv+dDP0dy4CAEy940e83oU39pigTe42j8H/ghk9X9sBj7lSfbEWQRAEkeTaFuHrljhisXjyoJAbhdh7QYSmZgB8CYuWVmLJV2+k2hEEQVx9SIQJgiAIokhc86ujCYIgCOJGhUSYIAiCIIoEiTBBEARBFAkSYYIgCIIoEiTCBEEQBFEkSIQJgiAIokiQCBMEQRBEkSARJgiCIIgiQSJMEARBEEWCRJggCIIgigSJMEEQBEEUCRJhgiAIgigSJMIEQRAEUSRIhAmCIAiiSJAIEwRBEESRIBEmCIIgiCJBIkwQBEEQRYJEmCAIgiCKxOdPhD8dwwF7D8Jxlc8mvNjaMQT+qhuVB5/GEYvFoGZ2UfO6oeDhtXDgLN65fwdGnOA4J4L5lOo1g+PM8E6q2NKVKQfhc+fIPNgpqS/vNc+9/pNemBP1UeSf//35tV36ffPQJnO1nyAK4DoR4TCcNRw4Lv/XruEMEnPTLdDe5Mb218Ly6xNeWFv+AP2j9ShTlN2zRqWMjl70dmSzwQrfbH+5H/rhWG9Gz7/FAMQxdmgrVi/+JpYt+yc4MtUrjRiCh3pw4JTUCJW8zvXAyK2G44yY7/gQel72YUx8Gzneg56BsfkR7PEh9Lw8hEja9V78qOYpDH04H4XkR7BLrc9qYB0AMGBFjVqfztvDOAinJN8aqw+AD9aVKrZ0GmU2ZBMY9Tpltz047IBhrV78zvPwH/PBvtGk+A0USHkFqsQ/+fIWjK4dRE3aIGMBKDdht8sAx7459lOx7Cc+n7Drghk2PT2d3+vyUbZds5kdncqSXXg/a/9VgE0nch87yDZ/fzs7EclQ+vQ0m54+wfZomtn+t8VyPjjBdmpa2cExFRv83ey7LQfZpdlUNXKUtddvZn0JWy7sZ02a9cwdnGbsbzNsJu+MQsx9v4bt/KPkDrW8Lp9gOzdtZ0fF8qbf3M40Sdun2YltGtb8+qxqksbU7zYzzc/6VNplmh19QsPWvzE/5RRGgHVrNEyzqY+lfWWC3Uyj0bDuoPKDKda3ScM0mtQrLU2wm2k03SxQkB2trO9yvukFG6TlBvZqWGufyhc/2K1eP2WZYn2zvlTzyaMulwMsIL6f6mtVz3tvQGJHlra73Mdac9mp+sq3fbPbTxDzyU3FHgTkRwlKS0vySzoRQaBOj42yoXwMQx3L8KPX5El7n5O/9959QPzLBM+oCwYxj5LSUpSMX0FweT12fKsUpQBwbgz+unr8+LZSlCIMZ80ulPUdQstiIDLux0erd0BbaDU/CcK5uRe3OT0wVQiX+Hf8CK59CC/Vlgq25JtXbAoT5/RYrk3doZpXeT12uOuTaSLjAWC5AbcI7zAWBCrX3lJoTVS5Mu4Hlv5EpV1KseIeE8zHz4Ffp52bF5YHwS4Oxk7FxQErajiranpHEwdH4k17P6JtQg3sR6Kw1fLwWmoQyZCvkXOk3jS6MOoWvcxJL8wrrfApC1vJQd0KO/qjNuiU5QxwcIifAYDPWgPVajS60i7xXjcc7RZEywGAh3dfCK6zUZjghXllBBaxPFUy2Z+rLu39iLZ5EDUl8kiUI7Qjx6WSytpO0Qbyv/MhCCfnnif78y+VIHJS7FFAXlzuY62aZnbw/dxJL73ezKpfCskvzpzM7LXm6cVO/W4z0zx7MumJXnq9mVUnRu7vH2TN97uZUKrgPco80LyYYkdtd7PNfWLJMwHW3dLMmvQaptE3seaWZrb+VaGEi6+3suYXT8q94ukTbE/LZnZwTHwfdrM1mp3s5EwheSk83+kTbHtau0+zS0P72fZNzay5pZm1P3uQBT5Qq85Jtn9bK2tuaWbNT7hZ4IMpdtSmYa2/yeDtFuw5Cm3Wtylf72w+kXqh6R4pY6zA+hTqBWcpt8D7Zd5n4u/Lfaw1l+1Z0+RZn0x5qLXdrL4fsyibMTa7/iCI2XFdeMLxsRB8y+uxZXGulDG8F/bjobVL5JffC0u81uyoe7FxXHzbiw2rdoueaKKcSgAAH/bDX9eCJQAQD8H/mgkrHs/bZxVyPN6Njrgd/aZEyVrUWzdgxuXHl2otsK0uxVduXQIghomwD9O3bpF7xRNjGBq+GfZFYn6XJxCuW46KEgDxfPNSeL4TYwigEobyZOvA9+QP0DGhx5af2mAojSH82i4YN/A49q82VIoGxUecaG46gdt3WWBrLEXsXS92djyDitOA9uEMXnW5Fob02eIFhfeaxfnYPJB6sQtVbkYvOIXBNQqPSWmF4EVaBxTptL3gmqTepMR7HOkV0i8FgCCcTSG4ztoKr4wqWmgbfYhMAijPmVidRm16xERxraD+K8iDnQf7CSJPFkSE3333XWzbtg1nzpzBqlWr8Pzzz+OOO+6YdX7hkcPAOR5ruV15pDbA9ZhcACNvD+FKXuFhhYjH/dj1zXXoSXz88jIcQCV2HNmBqdcMqHqsBGkC/V4Y/jo9flzQ0zqM3pcG0fJziY0lZahcvQhDzYC+3QB9beKDMYwFgRX3yGsTuzyB8PIKLBJHGZHxALC4HjcXkldsChPnKlHxtRJZnl8RmzNy8Cl0fGpH/0ETtOI3R68rxfR31qHv9CZU1pUAHw5h18+OQn+4H/ZV4o2r9aiYWYu1A3q8qM0wOOEjCBTSZACAMpjcUZgKvk9CHg9n3mtGzbG5FCKnzCSGYwExLDqIhrMemOb4wBfC44K9HYmLyfoF4eT84kUe3n0OGBoNQjh2xI+QazdssvIdKuFgA1wyO1XSSML1UoJdHIzITwj5SAjI49cqa8dZsTD2E0QhLIgIJwQYAM6cOYNt27bh8OHDs8wtgotneLS4TmFH/c3Zk4YPwOgqQ63sYSIIK//aWnAv5FOeCZ6EF1uyAlvOn8eW93qxflscv/jXDVgCoGSiF8a6evy4HEA8AP9vWqB/VFC//AVfwjk/+uIWdK5WCNTkBEIwoEFan4RQ/oPcp4+MBwBdvVhuDFPvh1F566KU559PXhNjCGAF6itU8oz78caLcWz515QAC210O26/Cxj8MAagDJHjB3CgfgvOr5LXpVJXDyAObQahiX80Db6xqvB59LnSaQSnnB9Wo7Eh++fDToXXKaB8yMs92SCc4rykL5cXnMkTH3aC2wfYs1sng/d2wLq0H6OL3fCNA6i1wVOrTJXPnKs8TbCLg3uxFkAZKpYCgxEeqC0DRpwwdhrgOpufgEXGfcBSi6yu+QpzYSyM/QRRCAsiwgkBzvS+ICZHMDSsR/1uLUpzxZJ1G9DvLpGHnOMh+F8z4MX/55doWBSH/4UaHP72W/il4RYAY+jdsB3xn/8aG5YiKeLLk79+YUEYfzmEYF0LKktLUQK50MaDfnjXmbDlq0DGcHgOwqf6cMXwHCrT6h6BD1WwSIVLIZQCStGNpHvLeeQl96YVeb4bRC/vB/9dDk+p1MG+sQwAj3OnhmCoezYt7B+bjgGJ8LgKY+/6Ual7cMEXZaUxX55wnQ3RtkQ4NwgnZ4QDmcLH8jQ5Q90jgtDK7u4Sw89L9Yi6tfBaHLBKFpAZXLuFP2SDDDv6AUTGAdc6HXA6R53mgHaxAb7xCIAInE0OGFyjeXr6PCYuAPaNWfpkRH3Akw+JaEEuZm8/QRTGgojwqlWrZMK7atWqWeeV/3wwgJJSlMaHsGv9EFbsfhaGCgAleuyI6oXPP/Ej4GvBQ+1LBEGfnEDgTD0sq8S54tU2vLU6zYIM88FLAPDwvdaLv552wrH637HjrtnMB/OYCIfR0Jgu3HwkBDQ2yMb/yrCzQEQ9rCzxlvPJS+5Ny/PkIxfBr3Xh1L+YsvgjVzA2DOCev0/7ZOzcoGTVtZIIQm9dwffa04YhC898ecISgl1GhBoNwACAYx3w3qUMNYsC3N6PaJ0fXFPmldmp8lOrm4NdHPx1o3BdqEGkThArZVie95rBDVsQjUbT82rzQAfM8UCOCHyNWuxOlYiJCwDE32mZtgqwumG+4IOv0YVR1YFI6l6vpQbWpUJ7WAfs6HdnSV5rQzQqnb8WVj5rk6FyoX2RTXDn1X6CmD0LcljH888/nxTexJzwbAmPHAbqKpGvbxk75UPPVAUqKtI/i/T3wP/jH6D+q8L7+FgIvh+tkOcd98Nh6U0eVgGMIfgbPZYvEZUqsfDqzhLEz+zH4UUNuJcX3guCn9ralB+CcC36WrqbL4TlKmQeUvyTK0DFLTJPM37mKPpUwspLKrLnJYjuEvUQtkLIyxZpgb/8Nc3GOB9BLNlWpSi7E4gp0304hL5XeehvrVDfYnXOh1c/sKA+Dw9lPikzeRCNRlOvI0JQ134kKr8ejSKq4qk6miSHaojwXjOM6IdnYxWAKlg2VsH6jPzwiGCXESHXaMoDb3RhVFmeil0JdG0KcRlxph3OUWP1pR30wXHZTuBS4oBR5dCPxGEhfCSk+D5FEBkAqrTilVo97PDBN2BHf6LtZKeIJULxDhi5DuDpKKJtWmGu2tWiHgZXfH9T9ffDgSpU5PBUg12p+s/dfoKYHxZEhO+44w4cPnwY0WgUhw8fnsOiLGE+2PTt2/PcHxvB4Ou9qP+pIS20Gx9x4rFXK/GcWZfMKzxyGAbdbXJBOz0E55dvxi2f8hgb8cM/cBR+fga+F9ZhXdNqON4WhfaLPuzq/BK2NFYgVKdPhbBHevCjLj9iedcxnsElEUbmhsVyv7Pky7cAx/ZjnzcMPsZj7C0nnur0IywR3XRvWS2vDCHsRBqlkH9bD9s7DjgOhhH7VMzhXC+evN+IDl9iVbMWVffo4H91H3zjgjLHJ4fg+EUPQjxQyan5wXH4vW4sUumz3Mz+mMlgV+I+yfGPtTZEo/1AU/rJVNIHeAKpWCcWRNUca8CoNLxdaxNOXJLYqGuLykPUmU7oSrxyhV5rbZlFu71f/lneC4vs6FcZEAjiL56sVacTj9zkwHFGOBpdaBEHB7zXLYbaUyuahWiMFh91ceA4N7RnE/kKHmywqwZWuLBbxeuMjGdaBR0Uw8UZhFuVudmvBZJHZOY6xYwgclLsPVJZmTrKNms0rP13+ewCnWYXX9/Mqqt3spMfK673bWdN+vbkqVACl9jBFg3b45dcmrnEDm6qZnv8Myy0r4l99/vNrHXbHub+1UF21H+ShSLTbOZvjLEPTrI93xdOtVLuSw79ak2BJz9dYn0/U9tXLJzktOe04vLMJdb3xN3iCUB3s/V7T7JLQzuZJrlPmbHQvjVMs+1E8kQw9byEE7W2vymmmj7BtmvWMHdYfPvmdlmejDE2E97PWvWSE4j069lOn6KuH19kB5P2aVj193eyE2Mn2M4M+7xn3u5mTQ90s1Ch26oZY7PeJyyeuJR1ny9jLNFuic8CeyX7apUp9yrsUOxrTftcmi6X/app1O1O2DjV1yr7V42Mn+XaJ5x1z27iNLFW1ndZPI1MLCPjiV7Je7Lnqbw3cfJWep7yfkvLY872S9o+nz3VBJGFa1uEWYi5HyjgWLrq9cwdFp/mf5tmF4fcbHP93az5n/vYxY+VeU+zEzvuVuRxN2t9JZT1aMjpt/ez1h8mjnkUDrdIHkAxfYLtrG5nR9UOr8hCYG916uCPfJmZlWrNC8IxnjnK/zifNAHW/UAT6w5e3booBTHjMYp5HtM41deank7lQa8qxPkcFalqh0KEFUdsygQ22K16ZONsRTiwN/ugRZ6n9IhPtQMwFIeGSMqQt0HKnmR/ZfnNqPepkMfc7ScRJuaPa1yEGWN/m2FTYwF20n8y6yvppTLGGJtifU80sfa9fSwwX0cpTQXYwX9ez9bLBH2GhV5qkgwCvsvafzeL84/Dbrameo9wutXnhkusT3pC2I1Gvic8FewJS0WhmwUyiFi6wKZHDWbtCROywdPsTy0jCMa+wBhjxQ6JX/PwPmx9IoDaxy1oqV2IVZIxDHX8Ew5U9uO1R676TtkiEIP/BTN6vrYDHnNl/udhEwRB3GCQCBMEQRBEkbhO/j9hgiAIgrjxIBEmCIIgiCJBIkwQBEEQRYJEmCAIgiCKBIkwQRAEQRQJEmGCIAiCKBIkwgRBEARRJEiECYIgCKJIkAgTBEEQRJEgESYIgiCIIkEiTBAEQRBFgkSYIAiCIIoEiTBBEARBFAkSYYIgCIIoEiTCBEEQBFEkSIQJgiAIokiQCBMEQRBEkSARJgiCIIgiQSJMEARBEEXicyXC/IAV3HN+xGd5f+z4UzD+YggxxfWwx4h1nvBczSOuaXh4LRw4ixf8XLMacYLjnAjmU6rXDI4zwzupYktXphyEz50j82CnpL681zy3+hdQ72wEu7LVnSCuL24qtgH5EYazZi0cBfz6Nx38d+yoK5FciePi215sWLUbJXnnaYJn1AVDGYAPh+B45iP8pLcepdJcR5zY/rv/C7/orczfuFx86IdjywF8ZesvselbpbnTqxEPw/n9tTjxwDH0m+fRtgUicrwHPhiw6T6t/IPxXvzowXPYcOJZ1H/16tgS7OJg7Mz0qRU1nDX9cqMLo24TyuZeOpycEQ5lqSs5pJU6YAQnsdN+JApbbYZcs9Upg+3BYQcMa0fF6zz8x3ywb/TkXcdgFwcj+hFt00nK0kKb+RZkqj9gR3/UBh2C8HcC9iM6lXsJ4vrjOhHhJdjwx/PYkE/ST/xwrBzEijtLFB+MIfgbPZb/T1HUxkPwL7Kj/48bsCRjZiUoLQWACLzP9GCR8zWYKiQfT3jx5M8cCPKA8Q7JY2MuD+QJH7ZuGIT+gEdeVqGUlGJJpR5T5bMU8WzwQ9i1xQ999w7Uz111APA4N7ALgToDNik/WtyAlvqtOHB8I+rXZX98zxe6tiiibUBSENT6c8QJrsmhInw8vJYaWAdSV7KJo0rpsEWjsMmuBeHk3NCe9cBUPosKiRhco/CYFB024gS3Ty11EP5OAxrOiulHeoU6DXAqAikibadJL9ydBrjOzkYsDXBJ6zrphXllRLTDDwfs6M+7PQni2uY6EeESlJYqRTUDExEE6vTYmHjWnOvB2jW7kAwW/w8OW5fvwGuPheCva0FlaSly5Rw5uAt/uOdFuGpLEPFuxa7Yj+F6OI6eJ/8A/b/+O1y3CTnE3+vFk5tGcO/2WQrwJ0E4N/fiNuccBRgAoIVh9yEY5pqNGhNh9Ax/Bd+bFwEGgCsYGwaW/E81kS3FintMMB8/B36ddh48zeyoeowDGbxfAI4miSi19yPaJtRBEF5BkCMZ8jVyGQZuk16YV1rhUxam5g0LpYleoqKcAU4QrKgg6T5rDVSr0ehKu8R73XC0WxAtBwAe3n0huM5GYYIgiBaxvEwEDwn2+1RsVm3LdoXHDCH8XTNuQXSdJN9hoc1kbSeiOsggiGsddj1wuY+1aprZwfdzJ730ejOrfimUujAzzaanp9nF11uZZsdRNjUtvD/xrIZtf3M6Z37Tf9zDWvcG2AxjbCbYzZptB9nFqQBzP9HNTn4gKffN7ax5g5uFcmeZgSl21HY329x3KXXpwkHW2uJmgcsBtn9bK2tu2clOJMqcvsROvLKdtbY0s+aWdrbzjQCTFX3hIGtt2cNOfiytTI57EpYE+1j3E82suaWZNT/RzY6OzSRtPPHPzay5vpppqr8rfP6rQOH5+/ez7ZuE/Nt/FWDTl4+yzZpW1hfJ0DTBbqbRdLNAho/VmWJ9mzRMs6mPTRV031wRyu0OKv+WUFB9Aqxb08r6Ls/Whtkgtt1e0cJgd+rvy32sNYftU32tqu2e6bqcVH2n+lqFcpNlBli3RmJXnvYQxLXMdeEJx8dC8C2vx5bFuVLG8F7Yj4fWSgLMJaUoLYkj9L4PG/7xlygrLQU+DSP8G+DAy8twQDWfxFxwBINuJ3zDTnyzE9Cuc+GNpyvgtbTCcYoHDqWPxtcu2wUA2LD/PJ69L/9QcOx4NzridvSbUt5gLHIOvpkrgD2AqodbYLtvEW7/KoSQdUsHIqu3YIPVgNJYGAeeNWI9fwy/tlaiJHHvBxXY8mUxszzuAeIIun6E1jdK8ZP2TbAtAiLHumH+/kV4jrpgKC/BbQYbDJ+sgx9bYDMtwZcqKgvLv6sZxqHb8ez/ssFQGsPYb3fiyRcqEIAWLYsyNE65FgZE8m7L+YD3mlFjTfNF1Zm3+eAs5Wb0glOoe4Lp4XGDaxQebS+4Jun3N+VNJ0PPSwEgCGdTCK6z8gB5ZoLotQKus/PTHlImvG44Gg0wXJgAD50YNYjA16jF7nkuiyCuFgsiwu+++y62bduGM2fOYNWqVXj++edxxx13zDq/8Mhh4ByPtdyuPFIb4HpMbT54Ca7EHfjRCyHoH/tB5vng8AEYXWVYXgYAWrQcjKIlFsSBV6ZR31YP7eQQtPe1oPKmCuw72AItgLBnLdrRiWPmSggLvnahbEkhc7Fh9L40iJaf75AtWomMB4BP6mH533bovpy8it6ODvz18X4cejiRWo8VpdP4TnMfAuZK6EuAj/gxQFcv5pffPfFhB1p/p4PrqB160Xz96kWIT+1CIByDobwU2lW34+ZXAMPaBuhXlxVkU+z4LrT69Og/nKqPfnUF4mvWwlf3IioyzQvwEQQKaE2BMpjcUZgKvk+CSohUCe81o+bYXAqRU2byIJowetIL88pBNMxxLhhIzUvzXjM6EheT9QvCyfnFizy8+xwwNBqEcPiIHyHXbthk5TtUwsGJeVwdbFHP3IzNQGQccG1swGBTBBEAZQD4SAjIsdSLIK5lFkSEEwIMAGfOnMG2bdtw+PDhWeYWwcUzPFpcp7Cj/ubsSUUBrRUfGLH3fBg8NIQ3fL0Ioh6bltfjB207cPOpJ7Erw3xwZNyPj1ZLxPCTMA54gYfa6lESiyFeVo/aL/fgyurvJQXuvdNX8L3/JXqE4yH4F9VjR06vXcI5P/riFnSulloTw9T7Yeh/vE8iwED81BtwfLYFv35Y/uApufV2rMAg+A8BlMcx8b4flbfuQGne90Rw2NODex8/nxRggUpscB+SthAiA0DVxpSfk2/+g68dwL2Pn5fVB6jEivsAxLW4JUPzxD+aBt9YdfUftZ3y1ccZaWzI/vmwU+F1CiiFTO7JBuFcmXleVV5+Bk98WFh0Zc9unQze2wHr0n6MLnbDNw6g1gZP2iIoidecdn+uCIIv4/y6UP/Md+rbPNAhiAgGMTEJ6MqByLgPhrW7F3ytAEEsFAsiwgkBzvS+ICZHMDSsR/1urbhSOQu6Deh3lyS3EEXeGgS/vAX2f/gI6y5vgH2dHiWIwy/bqiRFEc6e8OGpzR0YnODxVAeAxQa4/u9fojTsB//aWnAvSG49Jlmg8+ihLCuu0wmf6sMVw3OQbySKYCwIVK6VS9PYSC/4YR73cE+p5GSHpRwAriByDlixSpv/Pfw5+N8y4N7dORp5cgIhGNAg8Yzmln8M0x8C+sqKjAvkxt71o1L34NV/0M6XJ1xnQ7QtEc5NbcHJvJBIsk0nV6hbZXVzsEsMPy/VI+rWwmtxwCpZQGZwicFb2SDDjn6I3uY6HXA6R50yIPPk1eqUM3SfmnaIjPtgWLwbwITkcx307T64T/MwmYCJC0BVHUkwcf2yICK8atUqmfCuWrVq1nnlPx8MYf43PoRd64ewYvezMJhdqEQc/ufWYcOqXyb3BwdzzQc/LqQMDrhxpdKCpx/Xo1a3BNrSEiDux67XJPuH5dbC/9w34VtVlXPFdQoeE+EwGhoVsh2bwsS5SlR8rUSedoyHofsUPA9n8QvjE3hvuBIV20vzv2dyDH4sQUuusOdkBD5UiWJfgE2TY/ADuDftGzeGsC99sJEigtBbV/C99iLsdZ4vT1hCsMuIUKMBGABwrAPeu5ShZlGs2vsRrfODa8q8MjtVfmp1c7CLg79uFK4LNYjUCQMIZVie95rBDVsQjUbT82rzQAfM/UASJSN+OBpd6F87iN4RUwFbttLRLjbAd8wP/i5gcMAOi3v+zCSIq82CiPDzzz+fNic8W8Ijh4E6V96eZeyUDz1Tt+HB5BYf5f7gi3nOBwO6R/shm92Kx4H3wvDX6fFj1cF3CfTbo9DnaauAsD1n0Y8VHuLEGAJYgXrZVqUyLKoAYmlHfsXBT8RRWiGG1ycjCGMFNlUUcM//qcUK9CISBfSSAU9spBe971dhw8PC4io+EgIaGySh4TzzA3TMvQAABHtJREFULy3D7Yjhr4p0seN92M/rYddmGLac8+HVDyzovMr7QtM8uoz7gtWRbl2ybxT+5b1m4fCKjX5wA4BlI2B8xgu9xDMMdhkRco0iaioDRvwFe8K6tih04OFV2J2OL32AkYfnL9ZOdYtQ5rZJLe7SlVfAzzkRzLjFKTGnzMN7AfB11sB5JAqPZLxQZrLAbjWiZkCIJtCxHcR1TbGXZ2fnEjvYomGbf5fvJpNL7OAPNWz9G5JtPu8fZM33u1li09JUXyvTPHuSzajeL2Fmml0Kn2RH33CznU80sya9hmmePclCyi1QSi4fZe1P9LFLmVMoELZdKLeTTL+5nWkkdifN8u9h1dWb2cGwuPnnb9Ms9PpmVl29ObnFZ+aPO2X35nNPou2qbQfZxWnGGJthU/5utr66iXUHU6116Y31THP/HnZyaprN/K2Q/EPM/YCGrdl2lF2aEfMf2sM2f7+JaTQ72UnVDplhJ5+tlvdn3sx+i1Jgb+I+5VYf9b4K7JVum1HfHiTbniPZopR1206wm2k0mtyvtPuzbFGS5rk388ae5PYgJQVvCRLarLVPYmGwO3e/JMq53MdaVbZoBfZqmCbT1q3LfaxVrOPst2kRxNXh2hbhqaNss0bD2vMS4Wl28fXNrLp6p2xv7KXX10tEd4adzHN/8FRfO2vatJ3teaWPnQhfYtMfC2Wc2KZhrb/JJArTLLC3ia35VRaRTuMS6/uZhu38o1yFQvvWMM22Eyr7bGdY6JVWdrfkIXz3D3eyo5I9tpdeb1bcm/sexhhjkRNs5/erUw9pfStzn1ZYEDnK2uuFNKkHa375z4wdZO36RJpq1vzPJ9jFoZ1M03JQddAy83Y3a3qgm4VyjpjUmKUIiw/wrPt8GWNKQZYLsSLlXoUdin3CaZ9L0+WyXzWNut0JGxMCm1Fo2TyJsCj4mQcDmfIR7E98v6b6WmWCKwhwN+sW/w2o3NsdLNBWgigS17YIi95TXt6ARsM01euZOzzDkg9gjYZpqpvZ/nAivwDrrs6VT3WW0fMMC7x4d9Z7v7t5Pwt9nOl+dQJ7q1l1Fq9Elb/NsOnpaXFwILfx5LMatmafykAg4z2KHKan2fR0duWbUfu4kPxztdHHAdb9gNwLvxooBVEQgHw90HRUPV0VAVIV4vnyhBViKBPYYLeqRzk3ERYP1cg3ncL+9AHNFOvb28emVNILgiwVehJh4vriGhdhxtjfZtjUWICd9J/M+gpFUuFRxhJCMs3kWiKKRI7X1X3sM8bCbramek+GkGyBRPrY5upsA4nrgUusT3l62I1EvidmFewJSwafmm4WUJ58JZIusOlRg9mKcLoo5kFisLE3kDmiIItQpJUqP0lLMni5vn8HxOeBLzDGWLHnpYkYhjr+CQcq+/HaI7PfDRv5rRmrtwSg//m/4DWrroAV2tcSMfhfMKPnazvgMVdep3UgCILIDxLhG4lPYoihFKVfzp2UIAiCKD4kwgRBEARRJP5bsQ0gCIIgiM8rJMIEQRAEUSRIhAmCIAiiSPz/LJ4guJ81pdoAAAAASUVORK5CYII=;movable=0;resizable=0;rotatable=0;deletable=0;editable=0;connectable=0;" parent="1" vertex="1">
                    <mxGeometry x="60" y="400" width="481" height="164" as="geometry"/>
                </mxCell>
                <mxCell id="11" value="fulfilled就是完成了" style="text;html=1;align=center;verticalAlign=middle;resizable=0;points=[];autosize=1;strokeColor=none;fillColor=none;movable=0;rotatable=0;deletable=0;editable=0;connectable=0;" parent="1" vertex="1">
                    <mxGeometry x="68" y="590" width="120" height="30" as="geometry"/>
                </mxCell>
            </root>
        </mxGraphModel>
    </diagram>
</mxfile>